<svg width="700" height="119" viewBox="0 0 700 119" fill="none" xmlns="http://www.w3.org/2000/svg">
<g clip-path="url(#clip0_933_151)">
<path d="M32.6041 43.4964V57.6864L44.9021 50.5672L32.6041 43.4964Z" fill="#00D3A9"/>
<path d="M32.6041 60.652V74.9124L45.0165 67.8152L32.6041 60.652Z" fill="#00D3A9"/>
<path d="M30.8353 57.5896V43.6152L18.6913 50.5804L30.8353 57.5896Z" fill="#00B39F"/>
<path d="M6.47247 74.8596C8.85489 78.6922 12.0759 81.9343 15.8929 84.3416V69.408L6.47247 74.8596Z" fill="#00B39F"/>
<path d="M30.8353 74.842V60.7576L18.6605 67.8064L30.8353 74.842Z" fill="#00B39F"/>
<path d="M17.6661 83.4529L29.9949 76.4041L17.6661 69.2761V83.4529Z" fill="#00D3A9"/>
<path d="M45.8569 83.5276V69.3728L33.5457 76.4128L45.8569 83.5276Z" fill="#00B39F"/>
<path d="M57.9085 73.2185C60.0131 69.2903 61.2028 64.9374 61.3889 60.4849L48.5717 67.8241L57.9085 73.2185Z" fill="#00B39F"/>
<path d="M47.6301 66.3192L60.0029 59.244L47.6301 52.1336V66.3192Z" fill="#00D3A9"/>
<path d="M45.8568 49.0757V35.0045L33.6028 42.0313L45.8568 49.0757Z" fill="#00B39F"/>
<path d="M45.8568 66.2576V52.0588L33.5764 59.1692L45.8568 66.2576Z" fill="#00B39F"/>
<path d="M17.6661 52.0324V66.3368L30.0389 59.1736L17.6661 52.0324Z" fill="#00D3A9"/>
<path d="M30.8352 29.4956C26.2807 29.6238 21.8173 30.8029 17.7936 32.9408L30.8352 40.4208V29.4956Z" fill="#00B39F"/>
<path d="M17.6661 34.9077V49.1285L30.0477 42.0269L17.6661 34.9077Z" fill="#00D3A9"/>
<path d="M15.8929 34.0452C12.0768 36.4538 8.8561 39.6956 6.47247 43.5272L15.8929 48.9656V34.0452Z" fill="#00B39F"/>
<path d="M45.7777 33.0156C41.7205 30.8324 37.2095 29.627 32.6041 29.4956V40.5616L45.7777 33.0156Z" fill="#00D3A9"/>
<path d="M2.02844 60.2384C2.18223 64.8193 3.39776 69.3018 5.57924 73.3328L15.1228 67.8064L2.02844 60.2384Z" fill="#00D3A9"/>
<path d="M5.57924 45.0584C3.40464 49.0716 2.18927 53.534 2.02844 58.0956L15.136 50.576L5.57924 45.0584Z" fill="#00D3A9"/>
<path d="M17.7717 85.4329C21.8001 87.5812 26.2716 88.7665 30.8353 88.8957V77.9617L17.7717 85.4329Z" fill="#00B39F"/>
<path d="M56.9933 43.5756C54.6243 39.7551 51.4238 36.5185 47.6301 34.1068V48.9876L56.9933 43.5756Z" fill="#00D3A9"/>
<path d="M47.6301 84.2933C51.4433 81.8644 54.6566 78.603 57.0285 74.7541L47.6301 69.3245V84.2933Z" fill="#00D3A9"/>
<path d="M61.4285 58.012C61.2599 53.4945 60.0556 49.0762 57.9085 45.098L48.4441 50.5628L61.4285 58.012Z" fill="#00B39F"/>
<path d="M32.6041 88.8956C37.1573 88.768 41.6194 87.5889 45.6413 85.4504L32.6041 77.8956V88.8956Z" fill="#00D3A9"/>
<path d="M15.8928 66.2093V52.1821L3.71362 59.1649L15.8928 66.2093Z" fill="#00B39F"/>
</g>
<path d="M110.312 45.75C110.967 45.75 111.236 46.212 110.89 46.7895L102.497 60.5725V71.853C102.497 72.392 102.189 72.7 101.65 72.7H98.9549C98.3774 72.7 98.0694 72.392 98.0694 71.853V60.534L89.7149 46.7895C89.3684 46.212 89.6379 45.75 90.2924 45.75H93.4109C93.8729 45.75 94.2194 45.9425 94.4504 46.366L100.302 56.3375L106.154 46.366C106.385 45.9425 106.732 45.75 107.194 45.75H110.312ZM117.336 52.9495C121.609 52.9495 124.997 55.5675 124.997 60.38V71.853C124.997 72.392 124.689 72.7 124.112 72.7H121.763C121.224 72.7 120.916 72.392 120.916 71.853V70.8905C119.723 72.392 117.875 73.2005 115.449 73.2005C111.984 73.2005 108.827 71.1985 108.827 67.1175C108.827 63.0365 111.984 60.996 115.449 60.996C117.875 60.996 119.723 61.8045 120.916 62.9595V60.5725C120.916 57.916 119.376 56.838 117.336 56.838C115.603 56.838 114.217 57.608 113.871 59.0325C113.678 59.533 113.486 59.8025 112.947 59.8025H110.56C110.021 59.8025 109.674 59.4945 109.713 58.917C110.175 55.1825 113.37 52.9495 117.336 52.9495ZM116.758 69.9665C119.261 69.9665 120.916 68.773 120.916 67.1175C120.916 65.3465 119.261 64.23 116.758 64.23C114.179 64.23 112.985 65.462 112.985 67.1175C112.985 68.773 114.179 69.9665 116.758 69.9665ZM140.556 54.1815C140.71 53.681 141.056 53.45 141.518 53.45H144.175C144.791 53.45 145.099 53.835 144.868 54.451L136.205 79.707C136.051 80.2075 135.666 80.4 135.204 80.4H132.548C131.932 80.4 131.624 80.0535 131.855 79.4375L134.242 72.469L127.119 54.451C126.888 53.8735 127.158 53.45 127.812 53.45H130.43C130.892 53.45 131.239 53.681 131.393 54.143L136.321 66.7325L140.556 54.1815ZM149.42 64.23C148.958 64.23 148.65 63.999 148.611 63.537L147.803 53.45V46.6355C147.803 46.058 148.111 45.75 148.688 45.75H151.961C152.5 45.75 152.808 46.058 152.808 46.6355V53.45L152.038 63.537C151.999 63.999 151.691 64.23 151.229 64.23H149.42ZM148.765 72.7C148.226 72.7 147.918 72.392 147.918 71.853V68.773C147.918 68.1955 148.226 67.8875 148.765 67.8875H151.845C152.423 67.8875 152.731 68.1955 152.731 68.773V71.853C152.731 72.392 152.423 72.7 151.845 72.7H148.765ZM186.26 45.75C186.914 45.75 187.184 46.212 186.837 46.7895L178.444 60.5725V71.853C178.444 72.392 178.136 72.7 177.597 72.7H174.902C174.325 72.7 174.017 72.392 174.017 71.853V60.534L165.662 46.7895C165.316 46.212 165.585 45.75 166.24 45.75H169.358C169.82 45.75 170.167 45.9425 170.398 46.366L176.25 56.3375L182.102 46.366C182.333 45.9425 182.679 45.75 183.141 45.75H186.26ZM194.938 73.2005C189.279 73.2005 184.774 68.8115 184.774 63.075C184.774 57.377 189.279 52.9495 194.938 52.9495C200.559 52.9495 205.102 57.377 205.102 63.075C205.102 68.8115 200.559 73.2005 194.938 73.2005ZM194.938 69.158C198.326 69.158 200.944 66.5785 200.944 63.075C200.944 59.5715 198.326 56.992 194.938 56.992C191.55 56.992 188.932 59.5715 188.932 63.075C188.932 66.5785 191.55 69.158 194.938 69.158ZM223.454 53.45C224.031 53.45 224.339 53.758 224.339 54.3355V71.853C224.339 72.392 224.031 72.7 223.454 72.7H221.028C220.489 72.7 220.181 72.392 220.181 71.853V70.544C218.911 72.4305 217.063 73.2005 214.714 73.2005C211.134 73.2005 208.362 70.467 208.362 65.847V54.3355C208.362 53.758 208.67 53.45 209.209 53.45H211.634C212.212 53.45 212.52 53.758 212.52 54.3355V65.616C212.52 68.08 214.021 69.312 216.023 69.312C218.218 69.312 220.181 68.0415 220.181 64.4995V54.3355C220.181 53.758 220.489 53.45 221.028 53.45H223.454ZM237.981 53.1805C238.558 53.1035 238.866 53.45 238.866 53.989V56.7225C238.866 57.2615 238.635 57.5695 238.212 57.5695C235.709 57.6465 233.322 59.0325 233.322 62.8055V71.853C233.322 72.392 233.014 72.7 232.437 72.7H230.011C229.472 72.7 229.164 72.392 229.164 71.853V54.3355C229.164 53.758 229.472 53.45 230.011 53.45H232.437C233.014 53.45 233.322 53.758 233.322 54.3355V56.3375C234.323 54.3355 236.017 53.373 237.981 53.1805ZM266.512 45.75C267.09 45.75 267.398 46.058 267.398 46.6355V49.138C267.398 49.677 267.09 49.985 266.512 49.985H256.233V58.147H266.127C266.705 58.147 267.013 58.455 267.013 58.994V61.4965C267.013 62.074 266.705 62.382 266.127 62.382H256.233V71.853C256.233 72.392 255.925 72.7 255.347 72.7H252.652C252.113 72.7 251.805 72.392 251.805 71.853V46.6355C251.805 46.058 252.113 45.75 252.652 45.75H256.233H266.512ZM271.633 50.37C271.055 50.37 270.747 50.062 270.747 49.523V46.6355C270.747 46.058 271.055 45.75 271.633 45.75H274.058C274.597 45.75 274.905 46.058 274.905 46.6355V49.523C274.905 50.062 274.597 50.37 274.058 50.37H271.633ZM271.633 72.7C271.055 72.7 270.747 72.392 270.747 71.853V54.3355C270.747 53.758 271.055 53.45 271.633 53.45H274.058C274.597 53.45 274.905 53.758 274.905 54.3355V71.853C274.905 72.392 274.597 72.7 274.058 72.7H271.633ZM288.549 53.1805C289.127 53.1035 289.435 53.45 289.435 53.989V56.7225C289.435 57.2615 289.204 57.5695 288.78 57.5695C286.278 57.6465 283.891 59.0325 283.891 62.8055V71.853C283.891 72.392 283.583 72.7 283.005 72.7H280.58C280.041 72.7 279.733 72.392 279.733 71.853V54.3355C279.733 53.758 280.041 53.45 280.58 53.45H283.005C283.583 53.45 283.891 53.758 283.891 54.3355V56.3375C284.892 54.3355 286.586 53.373 288.549 53.1805ZM295.608 58.8785C295.608 62.7285 306.311 59.9565 306.311 67.31C306.311 71.083 303 73.2005 298.726 73.2005C294.799 73.2005 291.642 71.314 291.219 67.6565C291.18 67.079 291.527 66.771 292.066 66.771H294.453C294.992 66.771 295.184 67.0405 295.377 67.541C295.723 68.927 297.071 69.466 298.726 69.466C300.767 69.466 302.153 68.773 302.153 67.31C302.153 63.46 291.45 66.1935 291.45 58.8785C291.45 55.1055 294.761 52.9495 298.726 52.9495C302.345 52.9495 305.425 54.836 305.849 58.4935C305.926 59.1095 305.579 59.4175 305.002 59.4175H302.615C302.114 59.4175 301.883 59.1095 301.691 58.609C301.383 57.2615 300.112 56.684 298.726 56.684C296.994 56.684 295.608 57.4155 295.608 58.8785ZM318.511 53.45C319.089 53.45 319.397 53.758 319.397 54.3355V56.607C319.397 57.146 319.089 57.454 318.511 57.454H315.855V71.853C315.855 72.392 315.547 72.7 314.969 72.7H312.544C312.005 72.7 311.697 72.392 311.697 71.853V57.454H309.002C308.424 57.454 308.116 57.146 308.116 56.607V54.3355C308.116 53.758 308.424 53.45 309.002 53.45H311.697V48.1755C311.697 47.598 312.005 47.29 312.544 47.29H314.969C315.547 47.29 315.855 47.598 315.855 48.1755V53.45H318.511ZM342.309 45.75C347.198 45.75 351.087 49.6385 351.087 54.4125C351.087 59.1865 347.198 63.075 342.309 63.075H336.842V71.853C336.842 72.392 336.534 72.7 335.956 72.7H333.261C332.722 72.7 332.414 72.392 332.414 71.853V46.6355C332.414 46.058 332.722 45.75 333.261 45.75H336.842H342.309ZM342.309 58.917C344.734 58.917 346.659 56.915 346.659 54.4125C346.659 51.91 344.734 49.908 342.309 49.908H336.842V58.917H342.309ZM369.257 53.45C369.835 53.45 370.143 53.758 370.143 54.3355V71.853C370.143 72.392 369.835 72.7 369.257 72.7H366.832C366.293 72.7 365.985 72.392 365.985 71.853V70.544C364.714 72.4305 362.866 73.2005 360.518 73.2005C356.937 73.2005 354.165 70.467 354.165 65.847V54.3355C354.165 53.758 354.473 53.45 355.012 53.45H357.438C358.015 53.45 358.323 53.758 358.323 54.3355V65.616C358.323 68.08 359.825 69.312 361.827 69.312C364.021 69.312 365.985 68.0415 365.985 64.4995V54.3355C365.985 53.758 366.293 53.45 366.832 53.45H369.257ZM375.853 72.7C375.276 72.7 374.968 72.392 374.968 71.853V45.8655C374.968 45.288 375.276 44.98 375.853 44.98H378.279C378.818 44.98 379.126 45.288 379.126 45.8655V71.853C379.126 72.392 378.818 72.7 378.279 72.7H375.853ZM384.839 72.7C384.262 72.7 383.954 72.392 383.954 71.853V45.8655C383.954 45.288 384.262 44.98 384.839 44.98H387.265C387.804 44.98 388.112 45.288 388.112 45.8655V71.853C388.112 72.392 387.804 72.7 387.265 72.7H384.839ZM424.124 71.622C424.586 72.1995 424.355 72.7 423.624 72.7H420.39C419.928 72.7 419.581 72.5845 419.312 72.1995L411.496 62.8825H407.3V71.853C407.3 72.392 406.992 72.7 406.414 72.7H403.719C403.18 72.7 402.872 72.392 402.872 71.853V46.6355C402.872 46.058 403.18 45.75 403.719 45.75H407.3H412.882C417.656 45.75 421.545 49.6385 421.545 54.4125C421.545 57.8775 419.35 60.919 416.232 62.228L424.124 71.622ZM407.3 49.908V58.917H412.882C415.192 58.917 417.117 56.915 417.117 54.4125C417.117 51.91 415.192 49.908 412.882 49.908H407.3ZM434.697 52.9495C440.433 52.9495 444.206 57.5695 444.206 63.1135C444.206 63.46 444.206 63.768 444.168 64.076C444.129 64.615 443.783 64.8845 443.244 64.8845H440.01H428.883C429.538 68.0415 431.886 69.6585 434.812 69.6585C436.66 69.6585 438.162 68.8885 439.009 67.8105C439.317 67.464 439.586 67.2715 440.048 67.2715H442.512C443.167 67.2715 443.513 67.6565 443.244 68.1955C441.858 71.314 438.701 73.2005 434.774 73.2005C428.614 73.2005 424.61 68.85 424.61 63.075C424.61 57.377 428.652 52.9495 434.697 52.9495ZM428.883 61.458H440.01C439.471 58.1855 437.122 56.761 434.658 56.761C431.54 56.761 429.461 58.5705 428.883 61.458ZM466.314 53.45C466.891 53.45 467.199 53.758 467.199 54.3355V79.553C467.199 80.092 466.891 80.4 466.314 80.4H463.888C463.349 80.4 463.041 80.092 463.041 79.553V69.9665C461.578 71.9685 459.307 73.2005 456.265 73.2005C451.029 73.2005 446.717 68.8115 446.717 63.075C446.717 57.377 451.029 52.9495 456.265 52.9495C459.307 52.9495 461.578 54.22 463.041 56.222V54.3355C463.041 53.758 463.349 53.45 463.888 53.45H466.314ZM456.958 69.235C460.423 69.235 463.041 66.6555 463.041 63.075C463.041 59.4945 460.423 56.915 456.958 56.915C453.493 56.915 450.875 59.4945 450.875 63.075C450.875 66.6555 453.493 69.235 456.958 69.235ZM486.637 53.45C487.215 53.45 487.523 53.758 487.523 54.3355V71.853C487.523 72.392 487.215 72.7 486.637 72.7H484.212C483.673 72.7 483.365 72.392 483.365 71.853V70.544C482.094 72.4305 480.246 73.2005 477.898 73.2005C474.317 73.2005 471.545 70.467 471.545 65.847V54.3355C471.545 53.758 471.853 53.45 472.392 53.45H474.818C475.395 53.45 475.703 53.758 475.703 54.3355V65.616C475.703 68.08 477.205 69.312 479.207 69.312C481.401 69.312 483.365 68.0415 483.365 64.4995V54.3355C483.365 53.758 483.673 53.45 484.212 53.45H486.637ZM501.395 52.9495C507.132 52.9495 510.905 57.5695 510.905 63.1135C510.905 63.46 510.905 63.768 510.866 64.076C510.828 64.615 510.481 64.8845 509.942 64.8845H506.708H495.582C496.236 68.0415 498.585 69.6585 501.511 69.6585C503.359 69.6585 504.86 68.8885 505.707 67.8105C506.015 67.464 506.285 67.2715 506.747 67.2715H509.211C509.865 67.2715 510.212 67.6565 509.942 68.1955C508.556 71.314 505.399 73.2005 501.472 73.2005C495.312 73.2005 491.308 68.85 491.308 63.075C491.308 57.377 495.351 52.9495 501.395 52.9495ZM495.582 61.458H506.708C506.169 58.1855 503.821 56.761 501.357 56.761C498.238 56.761 496.159 58.5705 495.582 61.458ZM518.036 58.8785C518.036 62.7285 528.739 59.9565 528.739 67.31C528.739 71.083 525.428 73.2005 521.154 73.2005C517.227 73.2005 514.07 71.314 513.647 67.6565C513.608 67.079 513.955 66.771 514.494 66.771H516.881C517.42 66.771 517.612 67.0405 517.805 67.541C518.151 68.927 519.499 69.466 521.154 69.466C523.195 69.466 524.581 68.773 524.581 67.31C524.581 63.46 513.878 66.1935 513.878 58.8785C513.878 55.1055 517.189 52.9495 521.154 52.9495C524.773 52.9495 527.853 54.836 528.277 58.4935C528.354 59.1095 528.007 59.4175 527.43 59.4175H525.043C524.542 59.4175 524.311 59.1095 524.119 58.609C523.811 57.2615 522.54 56.684 521.154 56.684C519.422 56.684 518.036 57.4155 518.036 58.8785ZM540.939 53.45C541.516 53.45 541.824 53.758 541.824 54.3355V56.607C541.824 57.146 541.516 57.454 540.939 57.454H538.282V71.853C538.282 72.392 537.974 72.7 537.397 72.7H534.971C534.432 72.7 534.124 72.392 534.124 71.853V57.454H531.429C530.852 57.454 530.544 57.146 530.544 56.607V54.3355C530.544 53.758 530.852 53.45 531.429 53.45H534.124V48.1755C534.124 47.598 534.432 47.29 534.971 47.29H537.397C537.974 47.29 538.282 47.598 538.282 48.1755V53.45H540.939Z" fill="black"/>
<path d="M572.606 79C582.934 79 591.306 70.6278 591.306 60.3C591.306 49.9723 582.934 41.6 572.606 41.6C562.279 41.6 553.906 49.9723 553.906 60.3C553.906 70.6278 562.279 79 572.606 79Z" fill="#FFCC4D"/>
<path d="M573.705 70.75C574.92 70.75 575.905 69.5188 575.905 68C575.905 66.4812 574.92 65.25 573.705 65.25C572.49 65.25 571.505 66.4812 571.505 68C571.505 69.5188 572.49 70.75 573.705 70.75Z" fill="#664500"/>
<path d="M562.829 62.9213C562.628 62.9213 562.425 62.8663 562.243 62.7519C561.73 62.4285 561.576 61.7498 561.899 61.235C562.907 59.6367 565.97 56.9032 570.358 57.9768C570.948 58.1209 571.308 58.7171 571.164 59.3067C571.019 59.8963 570.421 60.2549 569.834 60.113C565.87 59.1428 563.782 62.3746 563.761 62.4076C563.551 62.7398 563.194 62.9213 562.829 62.9213ZM575.999 58.8051C575.68 58.8051 575.365 58.6676 575.147 58.4025C574.762 57.9328 574.831 57.2387 575.301 56.8537C578.795 53.9893 582.74 55.1355 584.338 56.1431C584.852 56.4665 585.006 57.1463 584.681 57.66C584.359 58.1715 583.682 58.3277 583.168 58.0065C583.016 57.9141 579.81 56.0012 576.695 58.5554C576.491 58.7237 576.244 58.8051 575.999 58.8051Z" fill="#664500"/>
<path d="M568.587 73.8004C568.512 73.8004 568.436 73.7905 568.362 73.7696C567.924 73.6453 567.669 73.1899 567.793 72.751C568.274 71.057 568.077 69.4191 567.254 68.2564C566.707 67.4842 565.928 67.0123 565.117 66.9606C564.661 66.9331 564.316 66.5404 564.344 66.0861C564.373 65.6318 564.763 65.26 565.219 65.315C566.531 65.3964 567.763 66.1213 568.599 67.3027C569.711 68.8746 569.996 71.024 569.379 73.1998C569.277 73.5639 568.946 73.8004 568.587 73.8004ZM580.728 70.4333C580.572 70.4333 580.414 70.3893 580.275 70.2969C578.991 69.4499 578.273 67.9682 578.303 66.2324C578.335 64.4339 579.193 62.7641 580.486 61.9765C580.874 61.7389 581.381 61.8621 581.619 62.2526C581.856 62.642 581.733 63.148 581.343 63.3856C580.534 63.8784 579.974 65.0345 579.952 66.261C579.93 67.4215 580.38 68.3906 581.182 68.9197C581.563 69.1705 581.667 69.682 581.416 70.0626C581.258 70.3035 580.996 70.4333 580.728 70.4333Z" fill="#E2A62D"/>
<path d="M572.803 42.392C572.756 42.3381 572.682 42.3084 572.595 42.2919C572.595 42.2919 555.079 38.9666 554.321 39.6354C553.564 40.3053 554.72 58.0978 554.72 58.0978C554.726 58.1869 554.746 58.2628 554.794 58.3167C555.459 59.0691 560.028 56.1123 565.001 51.7156C569.975 47.3178 573.468 43.1444 572.803 42.392Z" fill="#DD2E44"/>
<path d="M554.29 39.6981C554.274 39.7311 554.26 39.7762 554.249 39.8334C554.423 41.3415 556.113 53.7506 557.166 57.6292C558.745 56.7459 560.35 55.5458 562.236 54.0509C560.634 51.1194 555.18 39.5606 554.29 39.6981Z" fill="#EA596E"/>
<path d="M586.799 71.552L575.168 70.1187C573.925 70.0065 571.74 69.9955 571.852 68.0265C571.954 66.2412 574.096 66.5162 575.679 66.7505L587.381 68.7019L586.799 71.552Z" fill="#3B88C3"/>
<path d="M587.379 68.7029L582.735 67.9065C582.192 67.8086 581.708 68.6182 581.684 69.4751C581.656 70.4277 581.933 70.9095 582.482 71.0217L587.041 71.5849L587.379 68.7029Z" fill="#88C9F9"/>
<path d="M592.316 68.3751L589.432 71.0272L584.276 65.4205L587.161 62.7684C588.658 61.3912 591.009 61.4902 592.387 62.9873L592.535 63.149C593.911 64.6472 593.813 66.9979 592.316 68.3751Z" fill="#3B88C3"/>
<path d="M589.43 71.0287C590.669 69.8897 590.519 67.7113 589.096 66.1631C587.672 64.6148 585.514 64.2831 584.275 65.4221C583.036 66.561 583.186 68.7395 584.61 70.2877C586.033 71.836 588.191 72.1677 589.43 71.0287Z" fill="#88C9F9"/>
<path d="M588.399 69.9072C589.018 69.3377 588.828 68.1231 587.974 67.1942C587.12 66.2654 585.926 65.9741 585.306 66.5435C584.687 67.113 584.877 68.3277 585.731 69.2565C586.585 70.1854 587.78 70.4767 588.399 69.9072Z" fill="#226699"/>
<path d="M556.656 77.9C557.568 77.9 558.306 77.1613 558.306 76.25C558.306 75.3388 557.568 74.6 556.656 74.6C555.745 74.6 555.006 75.3388 555.006 76.25C555.006 77.1613 555.745 77.9 556.656 77.9Z" fill="#55ACEE"/>
<path d="M585.806 43.8C587.021 43.8 588.006 42.8151 588.006 41.6C588.006 40.385 587.021 39.4 585.806 39.4C584.591 39.4 583.606 40.385 583.606 41.6C583.606 42.8151 584.591 43.8 585.806 43.8Z" fill="#55ACEE"/>
<path d="M559.257 71.5706L556.685 65.393L554.36 72.0425L559.257 71.5706ZM582.506 44.9L578.106 46L579.206 41.6L582.506 44.9Z" fill="#EA596E"/>
<path d="M589.105 53.7L593.506 48.1989L590.206 46L589.105 53.7Z" fill="#77B255"/>
<g clip-path="url(#clip1_933_151)">
<path d="M662.523 59.89L659.732 60.3968L657.169 59.9322L655.897 59.7013L654.891 69.5151L652.771 90.176L659.732 77.9912L666.693 90.176L664.576 69.5151L663.567 59.7013L662.523 59.89Z" fill="#00D3A9"/>
<path d="M698.255 67.7944L663.418 32.5944C662.296 31.0657 661.072 29.6141 659.755 28.2493L659.732 28.224L659.71 28.2493C658.395 29.6132 657.172 31.0629 656.049 32.5888L621.702 67.296L637.19 64.48L637.274 64.4631L642.076 63.5901L646.981 62.7003L649.273 59.6534L654.905 69.5094L655.911 59.6956L657.184 59.9265L659.746 60.3912L662.534 59.8843L663.582 59.6956L664.59 69.5094L670.222 59.6534L672.511 62.7003L677.524 63.6099L682.395 64.511L682.55 64.5391L697.756 67.2988L698.255 67.7944ZM664.446 59.4027C664.446 59.4478 664.46 59.4929 664.466 59.5379C664.46 59.4816 664.452 59.4478 664.446 59.4027Z" fill="#00B39F"/>
<path d="M670.655 70.4021L670.776 70.5006L670.729 70.3683L670.655 70.4021Z" fill="#00B39F"/>
<path d="M649.166 70.0163C649.159 70.0345 649.153 70.0534 649.15 70.0726L649.172 70.0473L649.186 70.0332L649.166 70.0163Z" fill="#00B39F"/>
<path d="M698.255 67.7973V67.7945L697.765 67.2989L682.561 64.5392H682.556L698.446 80.6016V69.6474L698.255 67.7973Z" fill="#00D3A9"/>
<path d="M621.702 67.296L621.688 67.2988L621.198 67.7973L621.006 69.6474V80.841L637.182 64.4913L637.184 64.4857L621.702 67.296Z" fill="#00D3A9"/>
</g>
<defs>
<clipPath id="clip0_933_151">
<rect width="59.378" height="59.4088" fill="white" transform="translate(2.02844 29.4956)"/>
</clipPath>
<clipPath id="clip1_933_151">
<rect width="77.44" height="61.952" fill="white" transform="translate(621.006 28.224)"/>
</clipPath>
</defs>
</svg>
